# xmcd
#
# Track frame offsets: 
#        151
#        27019
#        43683
#        66266
#        82489
#        99064
#        118785
#        122856
#        153572
#        176873
#        204900
#        232691
#        251758
#        273281
#        289798
#
# Disc length: 4124 seconds
#
# Revision: 0
# Processed by: cddbd v1.5.2PL0 Copyright (c) Steve Scherf et al.
# Submitted via: ExactAudioCopy v0.99pb5
#
DISCID=d1101a0f
DTITLE=Various Artist - The Songs of Rod Temperton
DYEAR=1900
DGENRE=Soul
TTITLE0=Thriller
TTITLE1=Sweet Freedom
TTITLE2=Give Me The Night
TTITLE3=Baby Come To Me
TTITLE4=Rock With You
TTITLE5=Groove Line
TTITLE6=The Secret Garden (intro)
TTITLE7=The Secret Garden
TTITLE8=Ain't No Half Steppin'
TTITLE9=Nobody Does Me
TTITLE10=You Put A Move On My Heart
TTITLE11=Razzamatazz
TTITLE12=Turn Out Your Lamplight
TTITLE13=Spice of Life
TTITLE14=Love Is In Control
EXTD=
EXTT0=
EXTT1=
EXTT2=
EXTT3=
EXTT4=
EXTT5=
EXTT6=
EXTT7=
EXTT8=
EXTT9=
EXTT10=
EXTT11=
EXTT12=
EXTT13=
EXTT14=
PLAYORDER=
